<?xml version="1.0" encoding="UTF-8"?>
<svg xmlns="http://www.w3.org/2000/svg" viewBox="0 0 128 128" role="img" aria-label="Снежные зерна">
  <title>Снежные зерна</title>
  <rect width="128" height="128" rx="24" fill="#f8fafc"/>
  
  <g transform="translate(25 35) scale(0.9)">
    <path fill="#94a3b8" d="M73 42H18C8 42 0 34 0 24S8 6 18 6c3 0 6 1 9 2C33 3 41 0 50 0c16 0 29 12 31 27 8 2 14 8 14 15 0 9-8 16-22 16Z" opacity=".25"/>
    <path fill="#cbd5e1" d="M70 36H18C8 36 0 29 0 20S8 4 18 4c4 0 7 1 10 3C34 3 41 0 49 0c16 0 29 12 30 27 8 1 14 7 14 14 0 9-8 15-23 15Z"/>
  </g><rect x="35" y="85" width="8" height="8" rx="2" fill="#e0f2fe" stroke="#bae6fd" stroke-width="2"/>
  <rect x="48" y="97" width="8" height="8" rx="2" fill="#e0f2fe" stroke="#bae6fd" stroke-width="2"/>
  <rect x="62" y="85" width="8" height="8" rx="2" fill="#e0f2fe" stroke="#bae6fd" stroke-width="2"/>
  <rect x="75" y="97" width="8" height="8" rx="2" fill="#e0f2fe" stroke="#bae6fd" stroke-width="2"/>
  <rect x="89" y="85" width="8" height="8" rx="2" fill="#e0f2fe" stroke="#bae6fd" stroke-width="2"/>
</svg>
